<mxfile host="app.diagrams.net" agent="Mozilla/5.0 (Windows NT 10.0; Win64; x64) AppleWebKit/537.36 (KHTML, like Gecko) Chrome/130.0.0.0 Safari/537.36" version="24.7.17">
  <diagram name="ページ1" id="zxEJY_IDBnaw9EYZ5Pqj">
    <mxGraphModel dx="2607" dy="1429" grid="1" gridSize="10" guides="1" tooltips="1" connect="1" arrows="1" fold="1" page="1" pageScale="1" pageWidth="827" pageHeight="1169" math="0" shadow="0">
      <root>
        <mxCell id="0" />
        <mxCell id="1" parent="0" />
        <mxCell id="F2pfUkMXCgGfRe2AbSGn-1" value="" style="shape=image;verticalLabelPosition=bottom;labelBackgroundColor=default;verticalAlign=top;aspect=fixed;imageAspect=0;image=data:image/png,iVBORw0KGgoAAAANSUhEUgAABAAAAAQACAYAAAB/HSuDAAAADmVYSWZNTQAqAAAACAAAAAAAAADSU5MAAAAJb0ZGcwAAAAAAAAAAANoqts4AABqzSURBVHic7NwhbhtpAIbhZGVgUGAYGVoLAnOEkkiFuYHPsCeIcoKlS3ODwkohPUKRVVBZQVbhgAADgx1Le4WdH7zPI43mhx9xnHk18u0NAEXPm83mabvd/hg9BFjW6XR6mKbp63x8Gb0FgGWtRg8AYIzrw//rbPQOYFn7/f5mmqbRMwAY4I/RAwAAAID/nwAAAAAAAQIAAAAABAgAAAAAECAAAAAAQIAAAAAAAAECAAAAAAQIAAAAABAgAAAAAECAAAAAAAABAgAAAAAECAAAAAAQIAAAAABAgAAAAAAAAQIAAAAABAgAAAAAECAAAAAAQIAAAAAAAAECAAAAAAQIAAAAABAgAAAAAECAAAAAAAABAgAAAAAECAAAAAAQIAAAAABAgAAAAAAAAQIAAAAABAgAAAAAECAAAAAAQIAAAAAAAAECAAAAAAQIAAAAABAgAAAAAECAAAAAAAABAgAAAAAECAAAAAAQIAAAAABAgAAAAAAAAQIAAAAABAgAAAAAECAAAAAAQIAAAAAAAAECAAAAAAQIAAAAABAgAAAAAECAAAAAAAABAgAAAAAECAAAAAAQIAAAAABAgAAAAAAAAQIAAAAABAgAAAAAECAAAAAAQIAAAAAAAAECAAAAAAQIAAAAABAgAAAAAECAAAAAAAABAgAAAAAECAAAAAAQIAAAAABAgAAAAAAAAQIAAAAABAgAAAAAECAAAAAAQIAAAAAAAAECAAAAAAQIAAAAABAgAAAAAECAAAAAAAABAgAAAAAECAAAAAAQIAAAAABAgAAAAAAAAQIAAAAABAgAAAAAECAAAAAAQIAAAAAAAAECAAAAAAQIAAAAABAgAAAAAECAAAAAAAABAgAAAAAECAAAAAAQIAAAAABAgAAAAAAAAQIAAAAABAgAAAAAECAAAAAAQIAAAAAAAAECAAAAAAQIAAAAABAgAAAAAECAAAAAAAABAgAAAAAECAAAAAAQIAAAAABAgAAAAAAAAQIAAAAABAgAAAAAECAAAAAAQIAAAAAAAAECAAAAAAQIAAAAABAgAAAAAECAAAAAAAABAgAAAAAECAAAAAAQIAAAAABAgAAAAAAAAQIAAAAABAgAAAAAECAAAAAAQIAAAAAAAAECAAAAAAQIAAAAABAgAAAAAECAAAAAAAABAgAAAAAECAAAAAAQIAAAAABAgAAAAAAAAQIAAAAABAgAAAAAECAAAAAAQIAAAAAAAAECAAAAAAQIAAAAABAgAAAAAECAAAAAAAABAgAAAAAECAAAAAAQIAAAAABAgAAAAAAAAQIAAAAABAgAAAAAECAAAAAAQIAAAAAAAAECAAAAAAQIAAAAABAgAAAAAECAAAAAAAABAgAAAAAECAAAAAAQIAAAAABAgAAAAAAAAQIAAAAABAgAAAAAECAAAAAAQIAAAAAAAAECAAAAAAQIAAAAABAgAAAAAECAAAAAAAABAgAAAAAECAAAAAAQIAAAAABAgAAAAAAAAQIAAAAABAgAAAAAECAAAAAAQIAAAAAAAAECAAAAAAQIAAAAABAgAAAAAECAAAAAAAABAgAAAAAECAAAAAAQIAAAAABAgAAAAAAAAQIAAAAABAgAAAAAECAAAAAAQIAAAAAAAAECAAAAAAQIAAAAABAgAAAAAECAAAAAAAABAgAAAAAECAAAAAAQIAAAAABAgAAAAAAAAQIAAAAABAgAAAAAECAAAAAAQIAAAAAAAAECAAAAAAQIAAAAABAgAAAAAECAAAAAAAABAgAAAAAECAAAAAAQIAAAAABAgAAAAAAAAQIAAAAABAgAAAAAECAAAAAAQIAAAAAAAAECAAAAAAQIAAAAABAgAAAAAECAAAAAAAABAgAAAAAECAAAAAAQIAAAAABAgAAAAAAAAQIAAAAABAgAAAAAECAAAAAAQIAAAAAAAAECAAAAAAQIAAAAABAgAAAAAECAAAAAAAABAgAAAAAECAAAAAAQIAAAAABAgAAAAAAAAQIAAAAABAgAAAAAECAAAAAAQIAAAAAAAAECAAAAAAQIAAAAABAgAAAAAECAAAAAAAABAgAAAAAECAAAAAAQIAAAAABAgAAAAAAAAQIAAAAABAgAAAAAECAAAAAAQIAAAAAAAAECAAAAAAQIAAAAABAgAAAAAECAAAAAAAABAgAAAAAECAAAAAAQIAAAAABAgAAAAAAAAQIAAAAABAgAAAAAECAAAAAAQIAAAAAAAAECAAAAAAQIAAAAABAgAAAAAECAAAAAAAABAgAAAAAECAAAAAAQIAAAAABAwO3oAQz3PHoAMMTn9Xp9P1+/Rw8BlnU+n+/m6+d8/D56CzDEy+gBjLMaPYChnjebzdN2u/0xegiwrOPxeH+5XD6N3gEs7/rZvwbA3W73PnoLsKzT6fQwTdP1KAJECQBx14f/19noHcCyHh8fH673t7e3v0ZvAZY1f/7/vt59/0PPfr+/+S8AEOU3AAAAACBAAAAAAIAAAQAAAAACBAAAAAAIEAAAAAAgQAAAAACAAAEAAAAAAgQAAAAACBAAAAAAIEAAAAAAgAABAAAAAAIEAAAAAAgQAAAAACBAAAAAAIAAAQAAAAACBAAAAAAIEAAAAAAgQAAAAACAAAEAAAAAAgQAAAAACBAAAAAAIEAAAAAAgAABAAAAAAIEAAAAAAgQAAAAACBAAAAAAIAAAQAAAAACBAAAAAAIEAAAAAAgQAAAAACAAAEAAAAAAgQAAAAACBAAAAAAIEAAAAAAgAABAAAAAAIEAAAAAAgQAAAAACBAAAAAAIAAAQAAAAACBAAAAAAIEAAAAAAgQAAAAACAAAEAAAAAAgQAAAAACBAAAAAAIEAAAAAAgAABAAAAAAIEAAAAAAgQAAAAACBAAAAAAIAAAQAAAAACBAAAAAAIEAAAAAAgQAAAAACAAAEAAAAAAgQAAAAACBAAAAAAIEAAAAAAgAABAAAAAAIEAAAAAAgQAAAAACBAAAAAAIAAAQAAAAACBAAAAAAIEAAAAAAgQAAAAACAAAEAAAAAAgQAAAAACBAAAAAAIEAAAAAAgAABAAAAAAIEAAAAAAgQAAAAACBAAAAAAIAAAQAAAAACBAAAAAAIEAAAAAAgQAAAAACAAAEAAAAAAgQAAAAACBAAAAAAIEAAAAAAgAABAAAAAAIEAAAAAAgQAAAAACBAAAAAAIAAAQAAAAACBAAAAAAIEAAAAAAgQAAAAACAAAEAAAAAAgQAAAAACBAAAAAAIEAAAAAAgAABAAAAAAIEAAAAAAgQAAAAACBAAAAAAIAAAQAAAAACBAAAAAAIEAAAAAAgQAAAAACAAAEAAAAAAgQAAAAACBAAAAAAIEAAAAAAgAABAAAAAAIEAAAAAAgQAAAAACBAAAAAAIAAAQAAAAACBAAAAAAIEAAAAAAgQAAAAACAAAEAAAAAAgQAAAAACBAAAAAAIEAAAAAAgAABAAAAAAIEAAAAAAgQAAAAACBAAAAAAIAAAQAAAAACBAAAAAAIEAAAAAAgQAAAAACAAAEAAAAAAgQAAAAACBAAAAAAIEAAAAAAgAABAAAAAAIEAAAAAAgQAAAAACBAAAAAAIAAAQAAAAACBAAAAAAIEAAAAAAgQAAAAACAAAEAAAAAAgQAAAAACBAAAAAAIEAAAAAAgAABAAAAAAIEAAAAAAgQAAAAACBAAAAAAIAAAQAAAAACBAAAAAAIEAAAAAAgQAAAAACAAAEAAAAAAgQAAAAACBAAAAAAIEAAAAAAgAABAAAAAAIEAAAAAAgQAAAAACBAAAAAAIAAAQAAAAACBAAAAAAIEAAAAAAgQAAAAACAAAEAAAAAAgQAAAAACBAAAAAAIEAAAAAAgAABAAAAAAIEAAAAAAgQAAAAACBAAAAAAIAAAQAAAAACBAAAAAAIEAAAAAAgQAAAAACAAAEAAAAAAgQAAAAACBAAAAAAIEAAAAAAgAABAAAAAAIEAAAAAAgQAAAAACBAAAAAAIAAAQAAAAACBAAAAAAIEAAAAAAgQAAAAACAAAEAAAAAAgQAAAAACBAAAAAAIEAAAAAAgAABAAAAAAIEAAAAAAgQAAAAACBAAAAAAIAAAQAAAAACBAAAAAAIEAAAAAAgQAAAAACAAAEAAAAAAgQAAAAACBAAAAAAIEAAAAAAgAABAAAAAAIEAAAAAAgQAAAAACBAAAAAAIAAAQAAAAACBAAAAAAIEAAAAAAgQAAAAACAAAEAAAAAAgQAAAAACBAAAAAAIEAAAAAAgAABAAAAAAIEAAAAAAgQAAAAACBAAAAAAIAAAQAAAAACBAAAAAAIEAAAAAAgQAAAAACAAAEAAAAAAgQAAAAACBAAAAAAIEAAAAAAgAABAAAAAAIEAAAAAAgQAAAAACBAAAAAAIAAAQAAAAACBAAAAAAIEAAAAAAgQAAAAACAAAEAAAAAAgQAAAAACBAAAAAAIEAAAAAAgAABAAAAAAIEAAAAAAgQAAAAACBAAAAAAIAAAQAAAAACBAAAAAAIEAAAAAAgQAAAAACAAAEAAAAAAgQAAAAACBAAAAAAIEAAAAAAgAABAAAAAAIEAAAAAAgQAAAAACDgdvQAhnrebDZP2+32x+ghwLKOx+OXy+XyafZr9BZgWR8fH3+uVquP3W73bfQWYFmn0+lhmqav8/Fl9BbGEAB4Hj0AGOLzer2+n6/fo4cAyzqfz3fz9XM+fh+9BRjCw3/YavQAhvMHAKJ2u93762z0DmBZ+9nhcHi/8T8AQI7fAAAAAIAAAQAAAAACBAAAAAAIEAAAAAAgQAAAAACAAAEAAAAAAgQAAAAACBAAAAAAIEAAAAAAgAABAAAAAAIEAAAAAAgQAAAAACBAAAAAAIAAAQAAAAACBAAAAAAIEAAAAAAgQAAAAACAAAEAAAAAAgQAAAAACBAAAAAAIEAAAAAAgAABAAAAAAIEAAAAAAgQAAAAACBAAAAAAIAAAQAAAAACBAAAAAAIEAAAAAAgQAAAAACAAAEAAAAAAgQAAAAACBAAAAAAIEAAAAAAgAABAAAAAAIEAAAAAAgQAAAAACBAAAAAAIAAAQAAAAACBAAAAAAIEAAAAAAgQAAAAACAAAEAAAAAAgQAAAAACBAAAAAAIEAAAAAAgAABAAAAAAIEAAAAAAgQAAAAACBAAAAAAIAAAQAAAAACBAAAAAAIEAAAAAAgQAAAAACAAAEAAAAAAgQAAAAACBAAAAAAIEAAAAAAgAABAAAAAAIEAAAAAAgQAAAAACBAAAAAAIAAAQAAAAACBAAAAAAIEAAAAAAgQAAAAACAAAEAAAAAAgQAAAAACBAAAAAAIEAAAAAAgAABAAAAAAIEAAAAAAgQAAAAACBAAAAAAIAAAQAAAAACBAAAAAAIEAAAAAAgQAAAAACAAAEAAAAAAgQAAAAACBAAAAAAIEAAAAAAgAABAAAAAAIEAAAAAAgQAAAAACBAAAAAAIAAAQAAAAACBAAAAAAIEAAAAAAgQAAAAACAAAEAAAAAAgQAAAAACBAAAAAAIEAAAAAAgAABAAAAAAIEAAAAAAgQAAAAACBAAAAAAIAAAQAAAAACBAAAAAAIEAAAAAAgQAAAAACAAAEAAAAAAgQAAAAACBAAAAAAIEAAAAAAgAABAAAAAAIEAAAAAAgQAAAAACBAAAAAAIAAAQAAAAACBAAAAAAIEAAAAAAgQAAAAACAAAEAAAAAAgQAAAAACBAAAAAAIEAAAAAAgAABAAAAAAIEAAAAAAgQAAAAACBAAAAAAIAAAQAAAAACBAAAAAAIEAAAAAAgQAAAAACAAAEAAAAAAgQAAAAACBAAAAAAIEAAAAAAgAABAAAAAAIEAAAAAAgQAAAAACBAAAAAAIAAAQAAAAACBAAAAAAIEAAAAAAgQAAAAACAAAEAAAAAAgQAAAAACBAAAAAAIEAAAAAAgAABAAAAAAIEAAAAAAgQAAAAACBAAAAAAIAAAQAAAAACBAAAAAAIEAAAAAAgQAAAAACAAAEAAAAAAgQAAAAACBAAAAAAIEAAAAAAgAABAAAAAAIEAAAAAAgQAAAAACBAAAAAAIAAAQAAAAACBAAAAAAIEAAAAAAgQAAAAACAAAEAAAAAAgQAAAAACBAAAAAAIEAAAAAAgAABAAAAAAIEAAAAAAgQAAAAACBAAAAAAIAAAQAAAAACBAAAAAAIEAAAAAAgQAAAAACAAAEAAAAAAgQAAAAACBAAAAAAIEAAAAAAgAABAAAAAAIEAAAAAAgQAAAAACBAAAAAAIAAAQAAAAACBAAAAAAIEAAAAAAgQAAAAACAAAEAAAAAAgQAAAAACBAAAAAAIEAAAAAAgAABAAAAAAIEAAAAAAgQAAAAACBAAAAAAIAAAQAAAAACBAAAAAAIEAAAAAAgQAAAAACAAAEAAAAAAgQAAAAACBAAAAAAIEAAAAAAgAABAAAAAAIEAAAAAAgQAAAAACBAAAAAAIAAAQAAAAACBAAAAAAIEAAAAAAgQAAAAACAAAEAAAAAAgQAAAAACBAAAAAAIEAAAAAAgAABAAAAAAIEAAAAAAgQAAAAACBAAAAAAIAAAQAAAAACBAAAAAAIEAAAAAAgQAAAAACAAAEAAAAAAgQAAAAACBAAAAAAIEAAAAAAgAABAAAAAAIEAAAAAAgQAAAAACBAAAAAAIAAAQAAAAACBAAAAAAIEAAAAAAgQAAAAACAAAEAAAAAAgQAAAAACBAAAAAAIEAAAAAAgAABAAAAAAIEAAAAAAgQAAAAACBAAAAAAIAAAQAAAAACBAAAAAAIEAAAAAAgQAAAAACAAAEAAAAAAgQAAAAACBAAAAAAIEAAAAAAgAABAAAAAAIEAAAAAAgQAAAAACBAAAAAAICA1egBAIxxPB6/PD4+PozeASzrfD7fzbd/Ru8AYHneAAAAAIAAbwAARO12u2+vs9E7gGXtZ4fDYfQMAAbwBgAAAAAECAAAAAAQIAAAAABAgAAAAAAAAQIAAAAABAgAAAAAECAAAAAAQIAAAAAAAAECAAAAAAQIAAAAABAgAAAAAECAAAAAAAABAgAAAAAECAAAAAAQIAAAAABAgAAAAAAAAQIAAAAABAgAAAAAECAAAAAAQIAAAAAAAAECAAAAAAQIAAAAABAgAAAAAECAAAAAAAABAgAAAAAECAAAAAAQIAAAAABAgAAAAAAAAQIAAAAABAgAAAAAECAAAAAAQIAAAAAAAAECAAAAAAQIAAAAABAgAAAAAECAAAAAAAABAgAAAAAECAAAAAAQIAAAAABAgAAAAAAAAQIAAAAABAgAAAAAECAAAAAAQIAAAAAAAAECAAAAAAQIAAAAABAgAAAAAECAAAAAAAABAgAAAAAECAAAAAAQIAAAAABAgAAAAAAAAQIAAAAABAgAAAAAECAAAAAAQIAAAAAAAAECAAAAAAQIAAAAABAgAAAAAECAAAAAAAABAgAAAAAECAAAAAAQIAAAAABAgAAAAAAAAQIAAAAABAgAAAAAECAAAAAAQIAAAAAAAAECAAAAAAQIAAAAABAgAAAAAECAAAAAAAABAgAAAAAECAAAAAAQIAAAAABAgAAAAAAAAQIAAAAABAgAAAAAECAAAAAAQIAAAAAAAAECAAAAAAQIAAAAABAgAAAAAECAAAAAAAABAgAAAAAECAAAAAAQIAAAAABAgAAAAAAAAQIAAAAABAgAAAAAECAAAAAAQIAAAAAAAAECAAAAAAQIAAAAABAgAAAAAECAAAAAAAABAgAAAAAECAAAAAAQIAAAAABAgAAAAAAAAQIAAAAABAgAAAAAECAAAAAAQIAAAAAAAAECAAAAAAQIAAAAABAgAAAAAECAAAAAAAABAgAAAAAECAAAAAAQIAAAAABAgAAAAAAAAQIAAAAABAgAAAAAECAAAAAAQIAAAAAAAAECAAAAAAQIAAAAABAgAAAAAECAAAAAAAABAgAAAAAECAAAAAAQIAAAAABAgAAAAAAAAQIAAAAABAgAAAAAECAAAAAAQIAAAAAAAAECAAAAAAQIAAAAABAgAAAAAECAAAAAAAABAgAAAAAECAAAAAAQIAAAAABAgAAAAAAAAQIAAAAABAgAAAAAECAAAAAAQIAAAAAAAAECAAAAAAQIAAAAABAgAAAAAECAAAAAAAABAgAAAAAECAAAAAAQIAAAAABAgAAAAAAAAQIAAAAABAgAAAAAECAAAAAAQIAAAAAAAAECAAAAAAQIAAAAABAgAAAAAECAAAAAAAABAgAAAAAECAAAAAAQIAAAAABAgAAAAAAAAQIAAAAABAgAAAAAECAAAAAAQIAAAAAAAAECAAAAAAQIAAAAABAgAAAAAECAAAAAAAABAgAAAAAECAAAAAAQIAAAAABAgAAAAAAAAQIAAAAABAgAAAAAECAAAAAAQIAAAAAAAAECAAAAAAQIAAAAABAgAAAAAECAAAAAAAABAgAAAAAECAAAAAAQIAAAAABAgAAAAAAAAQIAAAAABAgAAAAAECAAAAAAQIAAAAAAAAECAAAAAAQIAAAAABAgAAAAAECAAAAAAAABAgAAAAAECAAAAAAQIAAAAABAgAAAAAAAAQIAAAAABAgAAAAAECAAAAAAQIAAAAAAAAECAAAAAAQIAAAAABAgAAAAAECAAAAAAAABAgAAAAAECAAAAAAQIAAAAABAgAAAAAAAAQIAAAAABAgAAAAAECAAAAAAQIAAAAAAAAECAAAAAAQIAAAAABAgAAAAAECAAAAAAAABAgAAAAAECAAAAAAQIAAAAABAgAAAAAAAAQIAAAAABAgAAAAAECAAAAAAQIAAAAAAAAECAAAAAAQIAAAAABAgAAAAAECAAAAAAAABAgAAAAAECAAAAAAQIAAAAABAgAAAAAAAAQIAAAAABAgAAAAAECAAAAAAQIAAAAAAAAECAAAAAAQIAAAAABAgAAAAAECAAADAv+3YoQGAQAwEQUNBdPSto74OoImP2BkTeyZmAQAIEAAAAAAgQAAAAACAAAEAAAAAAgQAAAAACBAAAAAAIEAAAAAAgAABAAAAAAIEAAAAAAgQAAAAACBAAAAAAIAAAQAAAAACBAAAAAAIEAAAAAAg4JoeAMCMvfe91pqeARz2//53nukdAJz3Aj0bg8jFdIOfAAAADmVYSWZNTQAqAAAACAAAAAAAAADSU5MAAAAASUVORK5CYII=;" vertex="1" parent="1">
          <mxGeometry x="50" y="310" width="1024" height="1024" as="geometry" />
        </mxCell>
        <mxCell id="F2pfUkMXCgGfRe2AbSGn-2" value="&lt;font style=&quot;font-size: 80px;&quot;&gt;1&lt;/font&gt;" style="text;html=1;align=center;verticalAlign=middle;whiteSpace=wrap;rounded=0;" vertex="1" parent="1">
          <mxGeometry x="532" y="420" width="60" height="30" as="geometry" />
        </mxCell>
      </root>
    </mxGraphModel>
  </diagram>
</mxfile>
